<svg width="77" height="77" viewBox="0 0 77 77" fill="none" xmlns="http://www.w3.org/2000/svg">
<circle cx="36" cy="41" r="35.5" fill="#FEFEFE" stroke="#F8B9BF"/>
<path d="M77 36C77 31.2724 76.0688 26.5911 74.2597 22.2234C72.4505 17.8557 69.7988 13.8871 66.4558 10.5442C63.1129 7.20125 59.1443 4.54951 54.7766 2.74034C50.4089 0.931167 45.7276 -2.06649e-07 41 0V3.27493C45.2975 3.27493 49.553 4.12139 53.5233 5.76598C57.4937 7.41057 61.1013 9.82108 64.1401 12.8599C67.1789 15.8987 69.5894 19.5063 71.234 23.4767C72.8786 27.447 73.7251 31.7025 73.7251 36H77Z" fill="#F8B9BF"/>
<g clip-path="url(#clip0_510_1016)">
<path d="M46.6664 25H23.9998V29H21.3331V31.6667H23.9998V34.3333H21.3331V37H23.9998V39.6667H21.3331V42.3333H23.9998V45H21.3331V47.6667H23.9998V50.3333H21.3331V53H23.9998V57H46.6664C47.7273 57 48.7447 56.5786 49.4949 55.8284C50.245 55.0783 50.6664 54.0609 50.6664 53V29C50.6664 27.9391 50.245 26.9217 49.4949 26.1716C48.7447 25.4214 47.7273 25 46.6664 25V25ZM37.3331 30.3333C38.2561 30.3333 39.1583 30.607 39.9258 31.1198C40.6932 31.6326 41.2913 32.3614 41.6446 33.2141C41.9978 34.0669 42.0902 35.0052 41.9101 35.9104C41.73 36.8157 41.2856 37.6472 40.6329 38.2998C39.9803 38.9525 39.1488 39.3969 38.2435 39.577C37.3383 39.7571 36.4 39.6646 35.5473 39.3114C34.6945 38.9582 33.9657 38.3601 33.4529 37.5927C32.9401 36.8252 32.6664 35.923 32.6664 35C32.6664 33.7623 33.1581 32.5753 34.0333 31.7002C34.9085 30.825 36.0954 30.3333 37.3331 30.3333ZM45.3331 49H42.6664V46.3333C42.6664 45.9797 42.526 45.6406 42.2759 45.3905C42.0259 45.1405 41.6867 45 41.3331 45H33.3331C32.9795 45 32.6404 45.1405 32.3903 45.3905C32.1403 45.6406 31.9998 45.9797 31.9998 46.3333V49H29.3331V46.3333C29.3331 45.2725 29.7545 44.255 30.5047 43.5049C31.2548 42.7548 32.2722 42.3333 33.3331 42.3333H41.3331C42.394 42.3333 43.4114 42.7548 44.1615 43.5049C44.9117 44.255 45.3331 45.2725 45.3331 46.3333V49ZM35.3331 35C35.3331 34.6044 35.4504 34.2178 35.6702 33.8889C35.8899 33.56 36.2023 33.3036 36.5677 33.1522C36.9332 33.0009 37.3353 32.9613 37.7233 33.0384C38.1113 33.1156 38.4676 33.3061 38.7473 33.5858C39.027 33.8655 39.2175 34.2219 39.2947 34.6098C39.3719 34.9978 39.3323 35.3999 39.1809 35.7654C39.0295 36.1308 38.7732 36.4432 38.4443 36.6629C38.1154 36.8827 37.7287 37 37.3331 37C36.8027 37 36.294 36.7893 35.9189 36.4142C35.5438 36.0391 35.3331 35.5304 35.3331 35Z" fill="#A70024"/>
</g>
<defs>
<clipPath id="clip0_510_1016">
<rect width="32" height="32" fill="white" transform="translate(20 25)"/>
</clipPath>
</defs>
</svg>
