<svg width="25" height="24" viewBox="0 0 25 24" fill="none" xmlns="http://www.w3.org/2000/svg">
<g clip-path="url(#clip0_1109_945)">
<path d="M6.02106 19.8998H11.3431L14.8621 23.4148C15.0512 23.6049 15.276 23.7558 15.5237 23.8588C15.7713 23.9618 16.0369 24.0148 16.3051 24.0148C16.4815 24.0145 16.6572 23.992 16.8281 23.9478C17.1733 23.8606 17.4895 23.6841 17.7447 23.4358C18 23.1876 18.1853 22.8765 18.2821 22.5338L24.4891 1.4248L6.02106 19.8998Z" fill="#FEFEFE"/>
<path d="M4.58691 18.5002L23.0719 0.012207L1.97791 6.23321C1.63445 6.33088 1.32249 6.51666 1.07299 6.77212C0.823487 7.02757 0.645112 7.34382 0.555561 7.68949C0.46601 8.03516 0.468394 8.39824 0.562479 8.74271C0.656563 9.08717 0.839076 9.40105 1.09191 9.65321L4.58691 13.1452V18.5002Z" fill="#FEFEFE"/>
</g>
<defs>
<clipPath id="clip0_1109_945">
<rect width="24" height="24" fill="white" transform="translate(0.5)"/>
</clipPath>
</defs>
</svg>
