<svg width="33" height="32" viewBox="0 0 33 32" fill="none" xmlns="http://www.w3.org/2000/svg">
<g clip-path="url(#clip0_510_885)">
<path d="M23.1667 6.66667V9.33333H16.616L19.016 4.604L16.6373 3.396L13.6227 9.33333H9.83333V6.66667C9.83333 4.89856 10.5357 3.20286 11.786 1.95262C13.0362 0.702379 14.7319 0 16.5 0C18.2681 0 19.9638 0.702379 21.214 1.95262C22.4643 3.20286 23.1667 4.89856 23.1667 6.66667ZM28.5 2.66667H24.92C25.5193 3.91508 25.8314 5.28186 25.8333 6.66667V12H7.16667V6.66667C7.16863 5.28186 7.48071 3.91508 8.08 2.66667H4.5C3.43913 2.66667 2.42172 3.08809 1.67157 3.83824C0.921427 4.58839 0.5 5.6058 0.5 6.66667L0.5 32H32.5V6.66667C32.5 5.6058 32.0786 4.58839 31.3284 3.83824C30.5783 3.08809 29.5609 2.66667 28.5 2.66667Z" fill="#FEFEFE"/>
</g>
<defs>
<clipPath id="clip0_510_885">
<rect width="32" height="32" fill="white" transform="translate(0.5)"/>
</clipPath>
</defs>
</svg>
