<svg width="33" height="32" viewBox="0 0 33 32" fill="none" xmlns="http://www.w3.org/2000/svg">
<g clip-path="url(#clip0_510_870)">
<path d="M15.1669 23.3333C15.1685 21.6352 15.669 19.9751 16.6062 18.559C17.5433 17.1429 18.8758 16.0333 20.4381 15.368C22.0005 14.7028 23.7238 14.5111 25.3942 14.8169C27.0645 15.1227 28.6082 15.9124 29.8335 17.088V0H7.16687C6.106 0 5.08859 0.421427 4.33844 1.17157C3.5883 1.92172 3.16687 2.93913 3.16687 4V28C3.16687 29.0609 3.5883 30.0783 4.33844 30.8284C5.08859 31.5786 6.106 32 7.16687 32H23.8335C21.535 32 19.3306 31.0869 17.7053 29.4616C16.08 27.8363 15.1669 25.6319 15.1669 23.3333ZM9.83354 6.66667H23.1669V9.33333H9.83354V6.66667ZM30.5575 31.9427L27.0149 28.4C26.0644 29.0066 24.9611 29.3303 23.8335 29.3333C22.6468 29.3333 21.4868 28.9814 20.5001 28.3222C19.5134 27.6629 18.7444 26.7258 18.2903 25.6294C17.8361 24.5331 17.7173 23.3267 17.9488 22.1628C18.1803 20.9989 18.7518 19.9298 19.5909 19.0907C20.43 18.2516 21.4991 17.6801 22.663 17.4486C23.8269 17.2171 25.0333 17.3359 26.1296 17.7901C27.226 18.2442 28.1631 19.0132 28.8224 19.9999C29.4816 20.9866 29.8335 22.1466 29.8335 23.3333C29.8305 24.4608 29.5068 25.5642 28.9002 26.5147L32.4429 30.0573L30.5575 31.9427Z" fill="#FEFEFE"/>
</g>
<defs>
<clipPath id="clip0_510_870">
<rect width="32" height="32" fill="white" transform="translate(0.5)"/>
</clipPath>
</defs>
</svg>
