<svg width="33" height="32" viewBox="0 0 33 32" fill="none" xmlns="http://www.w3.org/2000/svg">
<g clip-path="url(#clip0_510_891)">
<path d="M27.0922 3.52336L16.5002 0.0126953L5.9082 3.52336C5.11017 3.78792 4.41578 4.2972 3.92367 4.97887C3.43157 5.66055 3.16676 6.47995 3.16687 7.3207V16.0007C3.16687 26.0327 15.4335 31.5727 15.9589 31.8034L16.4309 32.0127L16.9215 31.85C17.4495 31.674 29.8335 27.4367 29.8335 16.0007V7.3207C29.8336 6.47995 29.5688 5.66055 29.0767 4.97887C28.5846 4.2972 27.8902 3.78792 27.0922 3.52336ZM17.0922 18.6527C16.8591 18.8873 16.5817 19.0734 16.2762 19.1999C15.9706 19.3265 15.6429 19.3911 15.3122 19.39H15.2682C14.9307 19.3849 14.5978 19.3113 14.2896 19.1738C13.9813 19.0363 13.7042 18.8377 13.4749 18.59L10.4002 15.39L12.3242 13.5474L15.3162 16.6674L22.2242 9.75936L24.1095 11.6447L17.0922 18.6527Z" fill="#FEFEFE"/>
</g>
<defs>
<clipPath id="clip0_510_891">
<rect width="32" height="32" fill="white" transform="translate(0.5)"/>
</clipPath>
</defs>
</svg>
