<svg width="77" height="77" viewBox="0 0 77 77" fill="none" xmlns="http://www.w3.org/2000/svg">
<circle cx="36" cy="41" r="35.5" fill="#FEFEFE" stroke="#F8B9BF"/>
<path d="M77 36C77 31.2724 76.0688 26.5911 74.2597 22.2234C72.4505 17.8557 69.7988 13.8871 66.4558 10.5442C63.1129 7.20125 59.1443 4.54951 54.7766 2.74034C50.4089 0.931167 45.7276 -2.06649e-07 41 0V3.27493C45.2975 3.27493 49.553 4.12139 53.5233 5.76598C57.4937 7.41057 61.1013 9.82108 64.1401 12.8599C67.1789 15.8987 69.5894 19.5063 71.234 23.4767C72.8786 27.447 73.7251 31.7025 73.7251 36H77Z" fill="#F8B9BF"/>
<g clip-path="url(#clip0_510_1085)">
<path d="M38.6667 50.3333C38.6667 48.789 39.1137 47.2777 39.9538 45.9818C40.7938 44.686 41.991 43.661 43.4008 43.0305C44.8105 42.4001 46.3727 42.1911 47.8986 42.4289C49.4245 42.6667 50.8489 43.3411 52 44.3707V33H44C44 30.8783 43.1571 28.8434 41.6569 27.3431C40.1566 25.8429 38.1217 25 36 25C33.8783 25 31.8434 25.8429 30.3431 27.3431C28.8429 28.8434 28 30.8783 28 33H20V53C20 54.0609 20.4214 55.0783 21.1716 55.8284C21.9217 56.5786 22.9391 57 24 57H42.244C41.1435 56.2707 40.2407 55.2801 39.6165 54.1168C38.9922 52.9535 38.6659 51.6536 38.6667 50.3333ZM36 27.6667C37.4145 27.6667 38.771 28.2286 39.7712 29.2288C40.7714 30.229 41.3333 31.5855 41.3333 33H30.6667C30.6667 31.5855 31.2286 30.229 32.2288 29.2288C33.229 28.2286 34.5855 27.6667 36 27.6667Z" fill="#A70024"/>
<path d="M50.6663 48.9992H47.9996V46.3325H45.3329V48.9992H42.6663V51.6659H45.3329V54.3325H47.9996V51.6659H50.6663V48.9992Z" fill="#A70024"/>
</g>
<defs>
<clipPath id="clip0_510_1085">
<rect width="32" height="32" fill="white" transform="translate(20 25)"/>
</clipPath>
</defs>
</svg>
