<svg width="77" height="77" viewBox="0 0 77 77" fill="none" xmlns="http://www.w3.org/2000/svg">
<circle cx="36" cy="41" r="35.5" fill="#FEFEFE" stroke="#F8B9BF"/>
<path d="M77 36C77 31.2724 76.0688 26.5911 74.2597 22.2234C72.4505 17.8557 69.7988 13.8871 66.4558 10.5442C63.1129 7.20125 59.1443 4.54951 54.7766 2.74034C50.4089 0.931167 45.7276 -2.06649e-07 41 0V3.27493C45.2975 3.27493 49.553 4.12139 53.5233 5.76598C57.4937 7.41057 61.1013 9.82108 64.1401 12.8599C67.1789 15.8987 69.5894 19.5063 71.234 23.4767C72.8786 27.447 73.7251 31.7025 73.7251 36H77Z" fill="#F8B9BF"/>
<g clip-path="url(#clip0_510_1107)">
<path d="M37.3333 33H34.6667C33.9594 33 33.2811 33.281 32.781 33.781C32.281 34.2811 32 34.9594 32 35.6667V57H40V35.6667C40 34.9594 39.719 34.2811 39.219 33.781C38.7189 33.281 38.0406 33 37.3333 33Z" fill="#A70024"/>
<path d="M49.3333 25H46.6667C45.9594 25 45.2811 25.281 44.781 25.781C44.281 26.2811 44 26.9594 44 27.6667V57H52V27.6667C52 26.9594 51.719 26.2811 51.219 25.781C50.7189 25.281 50.0406 25 49.3333 25V25ZM49.3333 54.3333H46.6667V27.6667H49.3333V54.3333Z" fill="#A70024"/>
<path d="M25.3333 41H22.6667C21.9594 41 21.2811 41.281 20.781 41.781C20.281 42.2811 20 42.9594 20 43.6667V57H28V43.6667C28 42.9594 27.719 42.2811 27.219 41.781C26.7189 41.281 26.0406 41 25.3333 41Z" fill="#A70024"/>
</g>
<defs>
<clipPath id="clip0_510_1107">
<rect width="32" height="32" fill="white" transform="translate(20 25)"/>
</clipPath>
</defs>
</svg>
