<svg width="24" height="24" viewBox="0 0 24 24" fill="none" xmlns="http://www.w3.org/2000/svg">
<g clip-path="url(#clip0_508_486)">
<path d="M11 16.999H6.086L0.045 10.958C0.016 11.299 0 11.648 0 11.999C6.5391e-05 15.0085 1.1309 17.908 3.16833 20.1229C5.20575 22.3377 8.00102 23.7062 11 23.957V16.999Z" fill="#282828"/>
<path d="M19.1261 19.1247C18.4509 18.4533 17.9154 17.6549 17.5505 16.7754C17.1856 15.8959 16.9985 14.9529 17.0001 14.0007H13.0001C12.2045 14.0007 11.4414 13.6846 10.8788 13.122C10.3162 12.5594 10.0001 11.7964 10.0001 11.0007V8.00071H13.0001V4.00071H17.0861L18.9001 2.18371C17.343 1.0898 15.548 0.381917 13.6633 0.118475C11.7787 -0.144967 9.85836 0.0435923 8.06094 0.668588C6.26352 1.29358 4.6405 2.33709 3.32587 3.71299C2.01123 5.08888 1.04267 6.7577 0.500122 8.58171L6.91412 15.0007H10.0001C10.7958 15.0007 11.5588 15.3168 12.1214 15.8794C12.6841 16.442 13.0001 17.2051 13.0001 18.0007V23.9587C15.9281 23.7165 18.6648 22.406 20.6891 20.2767L19.1261 19.1247Z" fill="#282828"/>
<path d="M20.489 17.6581L21.943 18.7201C23.5094 16.4023 24.2167 13.6101 23.9429 10.8261C23.669 8.0421 22.431 5.44126 20.443 3.47314L17.914 6.00114H15V10.0011H12V12.0011H19V13.9911C19.0042 15.3599 19.5378 16.6739 20.489 17.6581Z" fill="#282828"/>
</g>
<defs>
<clipPath id="clip0_508_486">
<rect width="24" height="24" fill="white"/>
</clipPath>
</defs>
</svg>
